<svg xmlns="http://www.w3.org/2000/svg" xmlns:xlink="http://www.w3.org/1999/xlink" width="500" zoomAndPan="magnify" viewBox="0 0 375 374.999991" height="500" preserveAspectRatio="xMidYMid meet" version="1.0"><defs><g/><clipPath id="2b6fbd35dc"><path d="M 21.390625 158.132812 L 91.902344 158.132812 L 91.902344 228.644531 L 21.390625 228.644531 Z M 21.390625 158.132812 " clip-rule="nonzero"/></clipPath><clipPath id="a7445e0c0b"><path d="M 40.890625 158.132812 L 72.402344 158.132812 C 83.171875 158.132812 91.902344 166.863281 91.902344 177.632812 L 91.902344 209.144531 C 91.902344 219.914062 83.171875 228.644531 72.402344 228.644531 L 40.890625 228.644531 C 30.121094 228.644531 21.390625 219.914062 21.390625 209.144531 L 21.390625 177.632812 C 21.390625 166.863281 30.121094 158.132812 40.890625 158.132812 " clip-rule="nonzero"/></clipPath><clipPath id="8bec17a3b2"><path d="M 28.402344 172.246094 L 42 172.246094 L 42 214.246094 L 28.402344 214.246094 Z M 28.402344 172.246094 " clip-rule="nonzero"/></clipPath><clipPath id="b9237c8942"><path d="M 72 172.246094 L 85.007812 172.246094 L 85.007812 214.246094 L 72 214.246094 Z M 72 172.246094 " clip-rule="nonzero"/></clipPath></defs><g clip-path="url(#2b6fbd35dc)"><g clip-path="url(#a7445e0c0b)"><path fill="#f4f6fc" d="M 21.390625 158.132812 L 91.902344 158.132812 L 91.902344 228.644531 L 21.390625 228.644531 Z M 21.390625 158.132812 " fill-opacity="1" fill-rule="nonzero"/></g></g><g clip-path="url(#8bec17a3b2)"><path fill="#ffffff" d="M 40.191406 176.914062 L 41.367188 176.914062 L 41.367188 172.246094 L 40.191406 172.246094 C 36.285156 172.246094 33.121094 175.378906 33.121094 179.246094 L 33.121094 187.414062 C 33.121094 188.148438 32.769531 188.839844 32.175781 189.28125 L 29.351562 191.378906 C 28.785156 191.800781 28.4375 192.449219 28.410156 193.148438 C 28.378906 193.847656 28.667969 194.527344 29.199219 194.992188 L 32.328125 197.746094 C 32.832031 198.1875 33.121094 198.824219 33.121094 199.488281 L 33.121094 207.246094 C 33.121094 211.113281 36.285156 214.246094 40.191406 214.246094 L 41.367188 214.246094 L 41.367188 209.578125 L 40.191406 209.578125 C 38.886719 209.578125 37.832031 208.535156 37.832031 207.246094 L 37.832031 199.488281 C 37.832031 197.488281 36.96875 195.585938 35.460938 194.257812 L 34.484375 193.398438 L 35.003906 193.011719 C 36.785156 191.691406 37.832031 189.617188 37.832031 187.414062 L 37.832031 179.246094 C 37.832031 177.957031 38.886719 176.914062 40.191406 176.914062 Z M 40.191406 176.914062 " fill-opacity="1" fill-rule="evenodd"/></g><g clip-path="url(#b9237c8942)"><path fill="#ffffff" d="M 73.429688 176.914062 L 72.253906 176.914062 L 72.253906 172.246094 L 73.429688 172.246094 C 77.335938 172.246094 80.5 175.378906 80.5 179.246094 L 80.5 187.414062 C 80.5 188.148438 80.851562 188.839844 81.441406 189.28125 L 84.269531 191.378906 C 84.835938 191.800781 85.183594 192.449219 85.210938 193.148438 C 85.242188 193.847656 84.953125 194.527344 84.421875 194.992188 L 81.292969 197.746094 C 80.789062 198.1875 80.5 198.824219 80.5 199.488281 L 80.5 207.246094 C 80.5 211.113281 77.335938 214.246094 73.429688 214.246094 L 72.253906 214.246094 L 72.253906 209.578125 L 73.429688 209.578125 C 74.734375 209.578125 75.789062 208.535156 75.789062 207.246094 L 75.789062 199.488281 C 75.789062 197.488281 76.652344 195.585938 78.160156 194.257812 L 79.136719 193.398438 L 78.617188 193.011719 C 76.835938 191.691406 75.789062 189.617188 75.789062 187.414062 L 75.789062 179.246094 C 75.789062 177.957031 74.734375 176.914062 73.429688 176.914062 Z M 73.429688 176.914062 " fill-opacity="1" fill-rule="evenodd"/></g><g fill="#f4f6fc" fill-opacity="1"><g transform="translate(99.324893, 210.976057)"><g><path d="M 30.84375 0 L 23.046875 0 L 12.90625 -16.296875 L 10.15625 -16.296875 L 10.15625 0 L 3.296875 0 L 3.296875 -33.546875 C 3.296875 -33.617188 3.175781 -34.113281 2.9375 -35.03125 C 2.707031 -35.945312 2.578125 -36.46875 2.546875 -36.59375 L 15.09375 -36.59375 C 18.800781 -36.59375 21.785156 -35.8125 24.046875 -34.25 C 26.316406 -32.6875 27.453125 -30.132812 27.453125 -26.59375 C 27.453125 -24.53125 26.664062 -22.597656 25.09375 -20.796875 C 23.53125 -18.992188 21.71875 -17.84375 19.65625 -17.34375 Z M 20.203125 -26.65625 C 20.203125 -28.21875 19.648438 -29.429688 18.546875 -30.296875 C 17.453125 -31.160156 16.085938 -31.59375 14.453125 -31.59375 L 10.15625 -31.59375 L 10.15625 -21.203125 L 13.34375 -21.203125 C 17.914062 -21.203125 20.203125 -23.019531 20.203125 -26.65625 Z M 20.203125 -26.65625 "/></g></g></g><g fill="#f4f6fc" fill-opacity="1"><g transform="translate(128.070321, 210.976057)"><g><path d="M 25.59375 0 L 3.34375 0 L 3.34375 -33.546875 L 2.59375 -36.59375 L 25.59375 -36.59375 L 25.59375 -31.65625 L 10.203125 -31.65625 L 10.203125 -21.296875 L 22 -21.296875 L 22 -16.34375 L 10.203125 -16.34375 L 10.203125 -4.953125 L 25.59375 -4.953125 Z M 25.59375 0 "/></g></g></g><g fill="#f4f6fc" fill-opacity="1"><g transform="translate(154.716068, 210.976057)"><g><path d="M 34 -18.25 C 34 -12.644531 32.28125 -8.144531 28.84375 -4.75 C 25.675781 -1.582031 21.507812 0 16.34375 0 L 3.34375 0 L 3.34375 -33.546875 C 3.34375 -33.578125 3.21875 -34.066406 2.96875 -35.015625 C 2.71875 -35.972656 2.578125 -36.5 2.546875 -36.59375 L 16.40625 -36.59375 C 21.90625 -36.59375 26.210938 -34.914062 29.328125 -31.5625 C 32.441406 -28.21875 34 -23.78125 34 -18.25 Z M 26.59375 -18.046875 C 26.59375 -20.453125 26.257812 -22.632812 25.59375 -24.59375 C 24.925781 -26.5625 23.769531 -28.226562 22.125 -29.59375 C 20.476562 -30.96875 18.421875 -31.65625 15.953125 -31.65625 L 10.25 -31.65625 L 10.25 -4.953125 L 16.046875 -4.953125 C 17.878906 -4.953125 19.492188 -5.304688 20.890625 -6.015625 C 22.296875 -6.734375 23.398438 -7.71875 24.203125 -8.96875 C 25.003906 -10.21875 25.601562 -11.601562 26 -13.125 C 26.394531 -14.644531 26.59375 -16.285156 26.59375 -18.046875 Z M 26.59375 -18.046875 "/></g></g></g><g fill="#f4f6fc" fill-opacity="1"><g transform="translate(188.860658, 210.976057)"><g><path d="M 25.59375 0 L 3.34375 0 L 3.34375 -33.546875 L 2.59375 -36.59375 L 25.59375 -36.59375 L 25.59375 -31.65625 L 10.203125 -31.65625 L 10.203125 -21.296875 L 22 -21.296875 L 22 -16.34375 L 10.203125 -16.34375 L 10.203125 -4.953125 L 25.59375 -4.953125 Z M 25.59375 0 "/></g></g></g><g fill="#f4f6fc" fill-opacity="1"><g transform="translate(215.506404, 210.976057)"><g><path d="M 25.59375 0 L 3.34375 0 L 3.34375 -33.546875 L 2.59375 -36.59375 L 25.59375 -36.59375 L 25.59375 -31.65625 L 10.203125 -31.65625 L 10.203125 -21.296875 L 22 -21.296875 L 22 -16.34375 L 10.203125 -16.34375 L 10.203125 -4.953125 L 25.59375 -4.953125 Z M 25.59375 0 "/></g></g></g><g fill="#f4f6fc" fill-opacity="1"><g transform="translate(242.15215, 210.976057)"><g><path d="M 39.296875 -0.046875 L 32.546875 -0.046875 L 32.546875 -24.84375 C 32.546875 -25.3125 32.628906 -26.515625 32.796875 -28.453125 C 32.703125 -28.179688 32.578125 -27.800781 32.421875 -27.3125 C 32.273438 -26.832031 32.132812 -26.394531 32 -26 C 31.863281 -25.601562 31.726562 -25.21875 31.59375 -24.84375 L 22.65625 0 L 18.953125 0 L 9.75 -24.84375 C 9.613281 -25.21875 9.476562 -25.601562 9.34375 -26 C 9.21875 -26.394531 9.078125 -26.832031 8.921875 -27.3125 C 8.773438 -27.800781 8.648438 -28.179688 8.546875 -28.453125 C 8.546875 -28.148438 8.585938 -27.582031 8.671875 -26.75 C 8.753906 -25.914062 8.796875 -25.28125 8.796875 -24.84375 L 8.796875 -0.046875 L 3.34375 -0.046875 L 3.34375 -33.546875 C 3.34375 -33.578125 3.285156 -33.828125 3.171875 -34.296875 C 3.054688 -34.765625 2.941406 -35.25 2.828125 -35.75 C 2.710938 -36.25 2.65625 -36.53125 2.65625 -36.59375 L 12.25 -36.59375 L 20.046875 -15.59375 C 20.410156 -14.59375 20.894531 -12.578125 21.5 -9.546875 C 21.5625 -9.785156 21.734375 -10.628906 22.015625 -12.078125 C 22.304688 -13.523438 22.582031 -14.632812 22.84375 -15.40625 L 30.5 -36.59375 L 39.296875 -36.59375 Z M 39.296875 -0.046875 "/></g></g></g><g fill="#f4f6fc" fill-opacity="1"><g transform="translate(283.245661, 210.976057)"><g/></g></g><g fill="#f4f6fc" fill-opacity="1"><g transform="translate(293.943883, 210.976057)"><g><path d="M 10.203125 0 L 3.296875 0 L 3.296875 -33.546875 C 3.296875 -33.578125 3.238281 -33.828125 3.125 -34.296875 C 3.007812 -34.765625 2.890625 -35.25 2.765625 -35.75 C 2.648438 -36.25 2.59375 -36.53125 2.59375 -36.59375 L 10.203125 -36.59375 Z M 10.203125 0 "/></g></g></g><g fill="#f4f6fc" fill-opacity="1"><g transform="translate(306.541813, 210.976057)"><g><path d="M 8 -6 C 8.769531 -5.226562 9.15625 -4.3125 9.15625 -3.25 C 9.15625 -2.1875 8.78125 -1.28125 8.03125 -0.53125 C 7.28125 0.21875 6.367188 0.59375 5.296875 0.59375 C 4.234375 0.59375 3.328125 0.21875 2.578125 -0.53125 C 1.828125 -1.28125 1.453125 -2.1875 1.453125 -3.25 C 1.453125 -4.3125 1.828125 -5.226562 2.578125 -6 C 3.328125 -6.769531 4.234375 -7.15625 5.296875 -7.15625 C 6.367188 -7.15625 7.269531 -6.769531 8 -6 Z M 8 -6 "/></g></g></g><g fill="#f4f6fc" fill-opacity="1"><g transform="translate(317.140048, 210.976057)"><g><path d="M 28.25 -31.65625 L 17.953125 -31.65625 L 17.953125 0 L 10.796875 0 L 10.796875 -31.65625 L 0.65625 -31.65625 L 0.65625 -36.59375 L 28.25 -36.59375 Z M 28.25 -31.65625 "/></g></g></g><g fill="#ffffff" fill-opacity="1"><g transform="translate(44.719818, 207.60104)"><g><path d="M 25.90625 0 L 19.359375 0 L 10.84375 -13.6875 L 8.53125 -13.6875 L 8.53125 0 L 2.765625 0 L 2.765625 -28.1875 C 2.765625 -28.238281 2.664062 -28.648438 2.46875 -29.421875 C 2.28125 -30.191406 2.171875 -30.632812 2.140625 -30.75 L 12.6875 -30.75 C 15.789062 -30.75 18.296875 -30.085938 20.203125 -28.765625 C 22.109375 -27.453125 23.0625 -25.3125 23.0625 -22.34375 C 23.0625 -20.601562 22.398438 -18.976562 21.078125 -17.46875 C 19.765625 -15.957031 18.238281 -14.992188 16.5 -14.578125 Z M 16.96875 -22.390625 C 16.96875 -23.703125 16.503906 -24.722656 15.578125 -25.453125 C 14.660156 -26.179688 13.515625 -26.546875 12.140625 -26.546875 L 8.53125 -26.546875 L 8.53125 -17.8125 L 11.21875 -17.8125 C 15.050781 -17.8125 16.96875 -19.335938 16.96875 -22.390625 Z M 16.96875 -22.390625 "/></g></g></g></svg>